# xmcd CD database file
#
# Track frame offsets:
#	150
#	12473
#	34430
#	55828
#	74838
#	91760
#	105093
#	124043
#	138963
#	160448
#	180468
#	190468
#	204350
#	220253
#	231355
#	255035
#	269720
#	288670
#	304305
#
# Disc length: 4199 seconds
#
# Revision: 4
# Processed by: cddbd v1.5.2PL0 Copyright (c) Steve Scherf et al.
# Submitted via: CDex 1.51
#
DISCID=1c106513
DTITLE=Jack Teagarden - Vol. 123 - Stars Fell on Alabama (1940-1957)
DYEAR=1960
DGENRE=Jazz
TTITLE0=I Gotta right To Sing The Blues
TTITLE1=Riverboat Shuffle
TTITLE2=Mis' Ry And The Blues
TTITLE3=King Porter Stomp
TTITLE4=Meet Me Where They Play The Blues
TTITLE5=Indiana (Back Home Again In Indiana)
TTITLE6=Davenport Blues
TTITLE7=Original Dixieland One-Step
TTITLE8=Blue Funk
TTITLE9=Milenberg Joys
TTITLE10=Music To Love By
TTITLE11=Baby, Won't You Please Come Home
TTITLE12='Way Down Yonder In New Orleans
TTITLE13=Everybody Loves My Baby
TTITLE14=Stars Fell On Alabama
TTITLE15=Aunt Hagar's Blues
TTITLE16=St.James Infirmary
TTITLE17=When Your Lover Has Gone
TTITLE18=Lover
EXTD=YEAR: 1960
EXTT0=
EXTT1=
EXTT2=
EXTT3=
EXTT4=
EXTT5=
EXTT6=
EXTT7=
EXTT8=
EXTT9=
EXTT10=
EXTT11=
EXTT12=
EXTT13=
EXTT14=
EXTT15=
EXTT16=
EXTT17=
EXTT18=
PLAYORDER=
